<svg xmlns="http://www.w3.org/2000/svg" width="100" height="100" viewBox="0 0 100 100" fill="none"><path d="M70.8333 95.8357H29.1666C23.6433 95.8291 18.3481 93.632 14.4425 89.7265C10.537 85.8209 8.33989 80.5257 8.33328 75.0024V43.5274C8.29984 42.8956 8.13815 42.2772 7.85807 41.7098C7.57798 41.1425 7.18536 40.6381 6.70411 40.2274C4.17236 37.8948 2.25953 34.97 1.13738 31.7155C0.0152226 28.461 -0.281124 24.9788 0.274945 21.5815C2.00828 10.8357 11.8749 4.16905 26.0083 4.16905H78.5333C83.5486 4.11861 88.4214 5.83617 92.2966 9.0203C96.1718 12.2044 98.8018 16.6517 99.7249 21.5815C100.281 24.9818 99.9839 28.467 98.8595 31.7239C97.7351 34.9807 95.8189 37.9071 93.2833 40.2399C92.805 40.6497 92.4151 41.1524 92.1372 41.7176C91.8593 42.2827 91.6992 42.8984 91.6666 43.5274V75.0024C91.66 80.5257 89.4629 85.8209 85.5574 89.7265C81.6518 93.632 76.3566 95.8291 70.8333 95.8357ZM26.0083 12.5024C15.9499 12.5024 9.57078 16.2982 8.50828 22.919C8.15741 24.9571 8.32626 27.0508 8.99922 29.0063C9.67218 30.9618 10.8275 32.716 12.3583 34.1066C13.6933 35.2899 14.7661 36.7393 15.5081 38.3616C16.25 39.984 16.6446 41.7435 16.6666 43.5274V75.0024C16.6666 78.3176 17.9836 81.497 20.3278 83.8412C22.672 86.1854 25.8514 87.5024 29.1666 87.5024H70.8333C74.1485 87.5024 77.3279 86.1854 79.6721 83.8412C82.0163 81.497 83.3333 78.3176 83.3333 75.0024V43.5274C83.3524 41.7431 83.7458 39.9826 84.4879 38.3599C85.23 36.7371 86.3044 35.2881 87.6416 34.1066C89.1728 32.7162 90.3287 30.9622 91.0024 29.0067C91.6761 27.0512 91.8457 24.9575 91.4958 22.919C90.9032 19.9366 89.2793 17.258 86.909 15.3532C84.5387 13.4485 81.5734 12.4392 78.5333 12.5024H26.0083ZM33.3333 50.0024C32.2282 50.0024 31.1684 50.4414 30.387 51.2228C29.6056 52.0042 29.1666 53.064 29.1666 54.169C29.1666 55.2741 29.6056 56.3339 30.387 57.1153C31.1684 57.8967 32.2282 58.3357 33.3333 58.3357C34.4383 58.3357 35.4982 57.8967 36.2796 57.1153C37.061 56.3339 37.4999 55.2741 37.4999 54.169C37.4999 53.064 37.061 52.0042 36.2796 51.2228C35.4982 50.4414 34.4383 50.0024 33.3333 50.0024ZM49.9999 66.669C48.8949 66.669 47.8351 67.108 47.0537 67.8894C46.2723 68.6708 45.8333 69.7306 45.8333 70.8357C45.8333 71.9408 46.2723 73.0006 47.0537 73.782C47.8351 74.5634 48.8949 75.0024 49.9999 75.0024C51.105 75.0024 52.1648 74.5634 52.9462 73.782C53.7276 73.0006 54.1666 71.9408 54.1666 70.8357C54.1666 69.7306 53.7276 68.6708 52.9462 67.8894C52.1648 67.108 51.105 66.669 49.9999 66.669ZM33.3333 66.669C32.2282 66.669 31.1684 67.108 30.387 67.8894C29.6056 68.6708 29.1666 69.7306 29.1666 70.8357C29.1666 71.9408 29.6056 73.0006 30.387 73.782C31.1684 74.5634 32.2282 75.0024 33.3333 75.0024C34.4383 75.0024 35.4982 74.5634 36.2796 73.782C37.061 73.0006 37.4999 71.9408 37.4999 70.8357C37.4999 69.7306 37.061 68.6708 36.2796 67.8894C35.4982 67.108 34.4383 66.669 33.3333 66.669Z" fill="#A474FF"></path></svg>