<svg xmlns="http://www.w3.org/2000/svg" width="100" height="100" viewBox="0 0 100 100" fill="none"><g clip-path="url(#clip0_387_34)"><path d="M61.9535 53.7025L95.9993 22.24C104.645 14.815 97.9951 -0.460042 86.8326 0.00245771H13.1576C1.94513 -0.414209 -4.7007 14.8316 4.12846 22.3566L38.0701 53.7275C40.2753 55.713 42.9448 57.1115 45.8326 57.7941V91.6691H29.166C28.0609 91.6691 27.0011 92.1081 26.2197 92.8895C25.4383 93.6709 24.9993 94.7307 24.9993 95.8358C24.9993 96.9409 25.4383 98.0007 26.2197 98.7821C27.0011 99.5635 28.0609 100.002 29.166 100.002H70.8326C71.9377 100.002 72.9975 99.5635 73.7789 98.7821C74.5603 98.0007 74.9993 96.9409 74.9993 95.8358C74.9993 94.7307 74.5603 93.6709 73.7789 92.8895C72.9975 92.1081 71.9377 91.6691 70.8326 91.6691H54.166V57.79C57.0637 57.1027 59.7418 55.697 61.9535 53.7025ZM19.266 25.0025H66.666C67.771 25.0025 68.8308 24.5635 69.6122 23.7821C70.3936 23.0007 70.8326 21.9409 70.8326 20.8358C70.8326 19.7307 70.3936 18.6709 69.6122 17.8895C68.8308 17.1081 67.771 16.6691 66.666 16.6691H10.2493C9.45562 16.0823 8.87069 15.2568 8.58019 14.3135C8.28968 13.3702 8.30887 12.3586 8.63494 11.427C8.96101 10.4954 9.57682 9.69266 10.3922 9.13639C11.2075 8.58013 12.1796 8.29956 13.166 8.33579H86.841C87.8195 8.33742 88.7739 8.63909 89.5756 9.20012C90.3773 9.76115 90.9876 10.5545 91.3243 11.4733C91.6689 12.2847 91.7472 13.1845 91.5481 14.0433C91.3489 14.9021 90.8825 15.6755 90.216 16.2525L56.3201 47.5733C54.6104 49.1336 52.3847 50.0075 50.0701 50.0275C50.0373 50.0192 50.0029 50.0192 49.9701 50.0275C47.6574 50.0219 45.4296 49.156 43.7201 47.5983L19.266 25.0025Z" fill="#5DE3BF"></path></g><defs><clipPath id="clip0_387_34"><rect width="100" height="100" fill="white"></rect></clipPath></defs></svg>