<svg xmlns="http://www.w3.org/2000/svg" width="100" height="100" viewBox="0 0 100 100" fill="none"><g clip-path="url(#clip0_387_36)"><path d="M83.3333 41.6667H82.8542C83.4323 39.7637 83.5631 37.753 83.2365 35.7911C82.9099 33.8293 82.1347 31.9694 80.9713 30.3563C79.8079 28.7433 78.2877 27.4207 76.5292 26.4916C74.7708 25.5625 72.8215 25.0521 70.8333 25H12.5C-10.2125 26.55 4.16667 61.0458 10.0458 70.4667C12.6823 74.4606 16.2772 77.7305 20.5022 79.978C24.7272 82.2256 29.4479 83.3791 34.2333 83.3333H49.0958C53.8039 83.3764 58.45 82.2583 62.623 80.0781C66.796 77.8978 70.3673 74.7226 73.0208 70.8333H83.3333C103.392 70.4458 107.329 40.925 83.3333 41.6667ZM49.0958 75H34.2333C30.8341 75.0458 27.4776 74.2388 24.4707 72.6528C21.4638 71.0667 18.9024 68.7522 17.0208 65.9208C14.7542 63.75 2.05833 33.3333 12.5 33.3333H70.8333C71.4066 33.3315 71.9737 33.4512 72.4973 33.6846C73.0209 33.918 73.4891 34.2599 73.8708 34.6875C74.277 35.135 74.5839 35.6633 74.7713 36.2378C74.9587 36.8123 75.0225 37.4199 74.9583 38.0208C72.6125 55.7667 68.2 74.2125 49.0958 75ZM83.3333 62.5H77.45C79.1629 58.4668 80.4937 54.2818 81.425 50C86.4625 49.6625 92.0333 50.9 91.6667 54.7625C91.5314 56.8735 90.5919 58.8524 89.0418 60.2917C87.4916 61.7311 85.4486 62.5214 83.3333 62.5ZM37.6042 12.5V4.16667C37.6042 3.0616 38.0432 2.00179 38.8246 1.22039C39.606 0.438987 40.6658 0 41.7708 0C42.8759 0 43.9357 0.438987 44.7171 1.22039C45.4985 2.00179 45.9375 3.0616 45.9375 4.16667V12.5C45.9375 13.6051 45.4985 14.6649 44.7171 15.4463C43.9357 16.2277 42.8759 16.6667 41.7708 16.6667C40.6658 16.6667 39.606 16.2277 38.8246 15.4463C38.0432 14.6649 37.6042 13.6051 37.6042 12.5ZM54.2708 12.5V4.16667C54.2708 3.0616 54.7098 2.00179 55.4912 1.22039C56.2726 0.438987 57.3324 0 58.4375 0C59.5426 0 60.6024 0.438987 61.3838 1.22039C62.1652 2.00179 62.6042 3.0616 62.6042 4.16667V12.5C62.6042 13.6051 62.1652 14.6649 61.3838 15.4463C60.6024 16.2277 59.5426 16.6667 58.4375 16.6667C57.3324 16.6667 56.2726 16.2277 55.4912 15.4463C54.7098 14.6649 54.2708 13.6051 54.2708 12.5ZM20.9375 12.5V4.16667C20.9375 3.0616 21.3765 2.00179 22.1579 1.22039C22.9393 0.438987 23.9991 0 25.1042 0C26.2092 0 27.269 0.438987 28.0504 1.22039C28.8318 2.00179 29.2708 3.0616 29.2708 4.16667V12.5C29.2708 13.6051 28.8318 14.6649 28.0504 15.4463C27.269 16.2277 26.2092 16.6667 25.1042 16.6667C23.9991 16.6667 22.9393 16.2277 22.1579 15.4463C21.3765 14.6649 20.9375 13.6051 20.9375 12.5ZM83.3333 95.8333C83.3333 96.9384 82.8944 97.9982 82.113 98.7796C81.3316 99.561 80.2717 100 79.1667 100H4.16667C3.0616 100 2.00179 99.561 1.22039 98.7796C0.438987 97.9982 0 96.9384 0 95.8333C0 94.7283 0.438987 93.6684 1.22039 92.887C2.00179 92.1056 3.0616 91.6667 4.16667 91.6667H79.1667C80.2717 91.6667 81.3316 92.1056 82.113 92.887C82.8944 93.6684 83.3333 94.7283 83.3333 95.8333Z" fill="#FFD600"></path></g><defs><clipPath id="clip0_387_36"><rect width="100" height="100" fill="white"></rect></clipPath></defs></svg>