<svg xmlns="http://www.w3.org/2000/svg" width="100" height="100" viewBox="0 0 100 100" fill="none"><g clip-path="url(#clip0_387_32)"><path d="M99.3163 19.6065C96.1372 6.63567 78.2747 -0.222663 67.333 6.7565C62.6005 2.42309 56.4164 0.0195313 49.9997 0.0195312C43.5829 0.0195313 37.3988 2.42309 32.6663 6.7565C5.87049 -6.906 -14.9462 32.2107 13.858 44.6398C14.6372 44.8646 15.3267 45.3271 15.8302 45.9629C16.3337 46.5986 16.626 47.3757 16.6663 48.1857V81.2523C16.6663 86.2251 18.6418 90.9943 22.1581 94.5106C25.6744 98.0269 30.4435 100.002 35.4163 100.002H64.583C67.0453 100.002 69.4834 99.5173 71.7583 98.5751C74.0332 97.6328 76.1001 96.2517 77.8412 94.5106C79.5823 92.7695 80.9635 90.7025 81.9057 88.4276C82.848 86.1528 83.333 83.7146 83.333 81.2523V48.1857C83.3733 47.3757 83.6656 46.5986 84.1691 45.9629C84.6726 45.3271 85.3621 44.8646 86.1413 44.6398C91.0748 42.8771 95.1665 39.3263 97.6064 34.6902C100.046 30.0542 100.657 24.671 99.3163 19.6065ZM74.9997 81.2523C74.9997 84.015 73.9022 86.6645 71.9487 88.618C69.9952 90.5715 67.3457 91.669 64.583 91.669H35.4163C33.8745 91.6363 32.3575 91.2732 30.9679 90.6043C29.5783 89.9354 28.3484 88.9762 27.3611 87.7914C26.3738 86.6066 25.6521 85.2239 25.2447 83.7365C24.8374 82.249 24.7538 80.6915 24.9997 79.169H74.9997V81.2523ZM83.333 36.7857C80.9281 37.5786 78.8315 39.1042 77.3371 41.1485C75.8427 43.1928 75.0254 45.6535 74.9997 48.1857V70.8357H24.9997V48.1857C24.974 45.6535 24.1566 43.1928 22.6622 41.1485C21.1678 39.1042 19.0713 37.5786 16.6663 36.7857C13.6929 35.7158 11.2295 33.5688 9.76346 30.7694C8.29742 27.97 7.93562 24.7224 8.74965 21.669C11.1913 12.919 24.2872 9.2565 30.3455 15.419C30.7801 15.8563 31.3058 16.1923 31.8852 16.4031C32.4645 16.6139 33.0832 16.6943 33.6972 16.6386C34.3112 16.5829 34.9053 16.3924 35.4372 16.0808C35.9692 15.7691 36.4258 15.344 36.7747 14.8357C41.9705 6.169 58.0038 6.169 63.1997 14.8357C63.5489 15.3434 64.0058 15.7679 64.5377 16.0791C65.0696 16.3903 65.6636 16.5805 66.2773 16.6362C66.8911 16.6919 67.5096 16.6117 68.0888 16.4013C68.6681 16.191 69.1939 15.8556 69.6288 15.419C71.2713 14.0203 73.2316 13.0455 75.3381 12.5799C77.4446 12.1142 79.6332 12.172 81.7122 12.7482C84.3606 13.3353 86.7476 14.7645 88.5158 16.8217C90.284 18.879 91.3383 21.4536 91.5208 24.1602C91.7033 26.8667 91.0042 29.5596 89.5282 31.8356C88.0522 34.1116 85.8786 35.8483 83.333 36.7857Z" fill="#FF86CC"></path></g><defs><clipPath id="clip0_387_32"><rect width="100" height="100" fill="white"></rect></clipPath></defs></svg>