<svg xmlns="http://www.w3.org/2000/svg" width="100" height="100" viewBox="0 0 100 100" fill="none"><path d="M95.8333 79.1666V70.8333C95.8182 59.4055 91.5383 48.3948 83.8316 39.9567C76.1249 31.5186 65.5463 26.2608 54.1667 25.2124V19.6791C55.7553 18.7619 56.997 17.3461 57.699 15.6513C58.401 13.9565 58.5242 12.0774 58.0494 10.3054C57.5746 8.53347 56.5284 6.9677 55.073 5.85096C53.6176 4.73422 51.8344 4.12891 50 4.12891C48.1655 4.12891 46.3824 4.73422 44.927 5.85096C43.4716 6.9677 42.4254 8.53347 41.9506 10.3054C41.4758 12.0774 41.599 13.9565 42.301 15.6513C43.003 17.3461 44.2446 18.7619 45.8333 19.6791V25.2124C34.4537 26.2608 23.8751 31.5186 16.1684 39.9567C8.46165 48.3948 4.1818 59.4055 4.16667 70.8333V79.1666C3.0616 79.1666 2.00179 79.6056 1.22039 80.387C0.438987 81.1684 0 82.2282 0 83.3333C0 84.4383 0.438987 85.4982 1.22039 86.2796C2.00179 87.061 3.0616 87.4999 4.16667 87.4999H95.8333C96.9384 87.4999 97.9982 87.061 98.7796 86.2796C99.561 85.4982 100 84.4383 100 83.3333C100 82.2282 99.561 81.1684 98.7796 80.387C97.9982 79.6056 96.9384 79.1666 95.8333 79.1666ZM12.5 70.8333C14.4708 21.1083 85.5458 21.1458 87.5 70.8333V79.1666H12.5V70.8333Z" fill="#FF86CC"></path></svg>