<svg xmlns="http://www.w3.org/2000/svg" width="100" height="100" viewBox="0 0 100 100" fill="none"><g clip-path="url(#clip0_387_23)"><path d="M79.166 49.9987H68.2744L70.5244 31.9529C70.9174 30.1275 70.8989 28.2374 70.4701 26.4201C70.0414 24.6027 69.2131 22.9037 68.0456 21.4465C66.8781 19.9893 65.4006 18.8105 63.7205 17.9957C62.0404 17.1809 60.1999 16.7507 58.3327 16.7362H48.4619C48.916 13.5237 48.641 8.3737 53.1869 8.35286H66.666C67.7711 8.35286 68.8309 7.91388 69.6123 7.13248C70.3937 6.35107 70.8327 5.29127 70.8327 4.1862C70.8327 3.08113 70.3937 2.02132 69.6123 1.23992C68.8309 0.458518 67.7711 0.0195313 66.666 0.0195312H53.1869C50.1414 0.0214059 47.2014 1.13502 44.919 3.15124C42.6365 5.16747 41.1687 7.94759 40.791 10.9695L40.0702 16.7362H12.4994C10.6694 16.7558 8.86566 17.1743 7.21393 17.9623C5.56219 18.7504 4.10217 19.8892 2.9356 21.2993C1.76904 22.7094 0.923985 24.357 0.459335 26.1271C-0.00531517 27.8973 -0.078386 29.7474 0.245214 31.5487L6.54938 81.7904C7.18685 86.8226 9.63657 91.4499 13.4399 94.8061C17.2433 98.1624 22.1395 100.017 27.2119 100.024L79.166 99.9737C81.9019 99.9737 84.611 99.4348 87.1386 98.3879C89.6662 97.3409 91.9629 95.8063 93.8974 93.8718C95.832 91.9372 97.3666 89.6406 98.4135 87.1129C99.4605 84.5853 99.9994 81.8762 99.9994 79.1404V70.832C99.9994 68.0962 99.4605 65.3871 98.4135 62.8595C97.3666 60.3318 95.832 58.0352 93.8974 56.1006C91.9629 54.1661 89.6662 52.6315 87.1386 51.5845C84.611 50.5376 81.9019 49.9987 79.166 49.9987ZM91.666 70.832H41.666C41.666 67.5168 42.983 64.3374 45.3272 61.9932C47.6714 59.649 50.8508 58.332 54.166 58.332H79.166C82.4813 58.332 85.6607 59.649 88.0049 61.9932C90.3491 64.3374 91.666 67.5168 91.666 70.832ZM58.3327 25.0654C58.991 25.0689 59.6392 25.2267 60.2255 25.526C60.8118 25.8254 61.3198 26.2579 61.7087 26.789C62.0976 27.3201 62.3566 27.935 62.465 28.5843C62.5734 29.2336 62.5281 29.8992 62.3327 30.5279L61.9702 33.332H46.3869L47.4202 25.057L58.3327 25.0654ZM9.26605 26.6237C9.6548 26.1394 10.1469 25.7481 10.7063 25.4785C11.2657 25.2089 11.8784 25.0677 12.4994 25.0654H39.0285L37.991 33.332H8.84938L8.43271 30.1237C8.29916 29.5152 8.30474 28.8844 8.44903 28.2784C8.59333 27.6723 8.87261 27.1067 9.26605 26.6237ZM14.816 80.757L9.89938 41.6654H60.9285L59.8827 49.9987H54.166C48.6407 49.9987 43.3417 52.1936 39.4347 56.1006C35.5276 60.0076 33.3327 65.3067 33.3327 70.832C33.1577 77.6404 32.916 86.4154 37.6494 91.707H27.2119C24.1664 91.7052 21.2264 90.5915 18.944 88.5753C16.6615 86.5591 15.1937 83.779 14.816 80.757ZM79.166 91.6654H54.166C50.8508 91.6654 47.6714 90.3484 45.3272 88.0042C42.983 85.66 41.666 82.4806 41.666 79.1654H57.0827C58.6952 79.9404 69.0619 87.9612 70.8327 87.4987C72.566 87.9904 83.041 79.9029 84.5827 79.1654H91.666C91.666 82.4806 90.3491 85.66 88.0049 88.0042C85.6607 90.3484 82.4813 91.6654 79.166 91.6654Z" fill="#83DCFF"></path></g><defs><clipPath id="clip0_387_23"><rect width="100" height="100" fill="white"></rect></clipPath></defs></svg>