<svg xmlns="http://www.w3.org/2000/svg" width="100" height="100" viewBox="0 0 100 100" fill="none"><g clip-path="url(#clip0_387_42)"><path d="M99.9251 46.4283C99.2376 39.5491 93.3751 34.0658 86.2793 33.3991C87.3376 31.1408 87.7209 28.5366 87.4251 25.5949C86.6918 18.2491 80.0584 12.4991 72.3209 12.4991H65.6959C63.1084 7.7491 58.9334 2.66993 53.7418 0.536598C51.6584 -0.317568 49.3334 -0.146735 47.3709 1.0116C45.3793 2.19076 44.0376 4.26993 43.7793 6.56993C43.5209 8.8616 42.9001 10.9324 42.2376 12.4991H27.6793C19.9459 12.4991 13.3084 18.2491 12.5751 25.5949C12.3043 28.2908 12.7918 30.9866 13.9376 33.3824C6.74177 33.9574 0.770933 39.4824 0.0750996 46.4283C-0.3374 50.5408 1.00843 54.6533 3.76677 57.6991C5.73343 59.8741 8.30427 61.3866 11.1043 62.0783C11.1043 62.0783 14.4751 70.6908 14.5959 70.8949C22.2709 83.6991 33.9376 83.5533 45.7876 83.3741C45.7918 83.3741 45.8043 83.3741 45.8293 83.3741V91.6699H33.3293C31.0293 91.6699 29.1626 93.5366 29.1626 95.8366C29.1626 98.1366 31.0293 100.003 33.3293 100.003H66.6626C68.9626 100.003 70.8293 98.1366 70.8293 95.8366C70.8293 93.5366 68.9626 91.6699 66.6626 91.6699H54.1626V83.3741C54.1876 83.3741 54.2001 83.3741 54.2043 83.3741C55.5584 83.3949 57.3709 83.4199 58.6918 83.4199C69.0251 83.4199 78.5876 82.2491 85.3959 70.8949C85.5168 70.6949 88.8876 62.0783 88.8876 62.0783C91.6876 61.3866 94.2584 59.8741 96.2251 57.6991C98.9834 54.6533 100.329 50.5408 99.9168 46.4283H99.9251ZM78.0751 66.8991C73.1168 74.9491 66.9876 75.2324 54.7793 75.0449C53.3334 75.0241 46.6709 75.0241 45.2209 75.0449C33.0293 75.2324 26.8876 74.9491 21.9251 66.8991L20.2126 62.4991H79.7876L78.0751 66.8991ZM90.0543 52.1074C88.8709 53.4158 87.1793 54.1658 85.4168 54.1658H14.5834C12.8209 54.1658 11.1293 53.4158 9.94593 52.1074C8.74593 50.7824 8.1876 49.0616 8.36677 47.2533C8.67927 44.1199 11.6709 41.6658 15.1751 41.6658H49.9959C52.2959 41.6658 54.1626 39.7991 54.1626 37.4991C54.1626 35.1991 52.2959 33.3324 49.9959 33.3324H27.0793C25.3168 33.3324 23.6251 32.5824 22.4418 31.2741C21.2418 29.9491 20.6834 28.2283 20.8626 26.4199C21.1751 23.2866 24.1668 20.8324 27.6709 20.8324H44.7709C46.2043 20.8324 47.5376 20.0949 48.3001 18.8783C49.9709 16.2116 51.2626 12.5741 51.8584 8.91993C54.5876 10.6533 57.5043 14.3033 59.3001 18.3533C59.9668 19.8574 61.4626 20.8324 63.1084 20.8324H72.3168C75.8209 20.8324 78.8126 23.2866 79.1251 26.4241C79.4376 29.5491 78.6251 31.7199 73.5543 33.5908C71.6584 34.2866 70.5376 36.2449 70.8918 38.2324C71.2459 40.2199 72.9751 41.6658 74.9918 41.6658H84.8126C88.3168 41.6658 91.3084 44.1199 91.6209 47.2574C91.8001 49.0616 91.2418 50.7824 90.0418 52.1074H90.0543Z" fill="#5DE3BF"></path></g><defs><clipPath id="clip0_387_42"><rect width="100" height="100" fill="white"></rect></clipPath></defs></svg>