<svg xmlns="http://www.w3.org/2000/svg" width="100" height="100" viewBox="0 0 100 100" fill="none"><g clip-path="url(#clip0_387_28)"><path d="M100 58.3583C99.9951 56.6108 99.6214 54.884 98.9034 53.2908C98.1854 51.6976 97.1393 50.2738 95.8335 49.1125V37.5C95.8224 27.5578 91.868 18.0259 84.8378 10.9957C77.8076 3.96545 68.2757 0.0110286 58.3335 0L41.6668 0C31.7246 0.0110286 22.1927 3.96545 15.1625 10.9957C8.13223 18.0259 4.17781 27.5578 4.16678 37.5V49.1125C2.86093 50.2738 1.81483 51.6976 1.09684 53.2908C0.378854 54.884 0.00513708 56.6108 0.000115705 58.3583V59.0708C-0.00749007 60.8386 0.359955 62.5879 1.07819 64.2032C1.79643 65.8185 2.84913 67.2631 4.16678 68.4417V83.3333C4.16678 87.7536 5.92273 91.9928 9.04834 95.1184C12.1739 98.244 16.4132 100 20.8335 100H79.1668C83.5871 100 87.8263 98.244 90.9519 95.1184C94.0775 91.9928 95.8335 87.7536 95.8335 83.3333V67.6083C97.1398 66.4466 98.1862 65.0221 98.9043 63.4281C99.6223 61.8342 99.9957 60.1066 100 58.3583ZM12.5001 37.5C12.5089 29.7672 15.5847 22.3537 21.0526 16.8858C26.5205 11.4179 33.934 8.34216 41.6668 8.33333H58.3335C66.0662 8.34216 73.4798 11.4179 78.9477 16.8858C84.4156 22.3537 87.4913 29.7672 87.5001 37.5V45.8583H12.5001V37.5ZM87.5001 62.525H70.8335C59.7885 62.5318 49.1174 66.5267 40.7835 73.775C39.8763 74.5722 38.7099 75.0119 37.5022 75.0119C36.2945 75.0119 35.1281 74.5722 34.221 73.775C27.8018 68.1903 19.9547 64.5026 11.5584 63.125C10.6312 62.934 9.80039 62.4235 9.21101 61.6825C8.62162 60.9416 8.31105 60.0173 8.33345 59.0708V58.3583C8.33345 57.2533 8.77244 56.1935 9.55384 55.4121C10.3352 54.6307 11.395 54.1917 12.5001 54.1917H87.5001C88.6052 54.1917 89.665 54.6307 90.4464 55.4121C91.2278 56.1935 91.6668 57.2533 91.6668 58.3583C91.6668 59.4634 91.2278 60.5232 90.4464 61.3046C89.665 62.086 88.6052 62.525 87.5001 62.525ZM87.5001 83.3333C87.5001 85.5435 86.6222 87.6631 85.0593 89.2259C83.4965 90.7887 81.3769 91.6667 79.1668 91.6667H20.8335C18.6233 91.6667 16.5037 90.7887 14.9409 89.2259C13.3781 87.6631 12.5001 85.5435 12.5001 83.3333V71.8875C18.5045 73.2292 24.0857 76.0298 28.7501 80.0417C31.1671 82.172 34.2783 83.3473 37.5001 83.3473C40.7219 83.3473 43.8331 82.172 46.2501 80.0417C53.0735 74.1257 61.8026 70.8707 70.8335 70.875H87.5001V83.3333ZM45.8335 20.8333C45.8335 21.9384 45.3945 22.9982 44.6131 23.7796C43.8317 24.561 42.7719 25 41.6668 25C40.5617 25 39.5019 24.561 38.7205 23.7796C37.9391 22.9982 37.5001 21.9384 37.5001 20.8333C37.5001 19.7283 37.9391 18.6685 38.7205 17.8871C39.5019 17.1057 40.5617 16.6667 41.6668 16.6667C42.7719 16.6667 43.8317 17.1057 44.6131 17.8871C45.3945 18.6685 45.8335 19.7283 45.8335 20.8333ZM33.3335 33.3333C33.3335 34.4384 32.8945 35.4982 32.1131 36.2796C31.3317 37.061 30.2719 37.5 29.1668 37.5C28.0617 37.5 27.0019 37.061 26.2205 36.2796C25.4391 35.4982 25.0001 34.4384 25.0001 33.3333C25.0001 32.2283 25.4391 31.1685 26.2205 30.3871C27.0019 29.6057 28.0617 29.1667 29.1668 29.1667C30.2719 29.1667 31.3317 29.6057 32.1131 30.3871C32.8945 31.1685 33.3335 32.2283 33.3335 33.3333Z" fill="#FFD600"></path></g><defs><clipPath id="clip0_387_28"><rect width="100" height="100" fill="white"></rect></clipPath></defs></svg>