<svg xmlns="http://www.w3.org/2000/svg" width="100" height="100" viewBox="0 0 100 100" fill="none"><g clip-path="url(#clip0_387_25)"><path d="M96.6665 3.33292C95.1214 1.77464 93.1565 0.699217 91.0111 0.237595C88.8658 -0.224028 86.6325 -0.0519359 84.5832 0.732917L13.1457 28.8704C8.47743 30.7166 4.63756 34.1937 2.33875 38.6564C0.0399518 43.1192 -0.561634 48.2644 0.645658 53.1371C3.67496 64.1945 9.52979 74.2733 17.6345 82.3824C25.7392 90.4915 35.8148 96.3518 46.8707 99.3871C51.7484 100.587 56.8956 99.9775 61.3584 97.6721C65.8212 95.3668 69.297 91.5217 71.1415 86.8496L99.2998 15.2996C100.059 13.2631 100.215 11.0507 99.7475 8.928C99.2804 6.80532 98.2106 4.86256 96.6665 3.33292ZM48.9415 91.2954C39.3208 88.6551 30.5527 83.557 23.4987 76.5023C16.4446 69.4475 11.3475 60.6788 8.70816 51.0579C8.09951 48.5755 8.28013 45.965 9.22488 43.5901C10.1696 41.2152 11.8315 39.1939 13.979 37.8079C14.4097 50.4567 19.6262 62.4702 28.5743 71.4206C37.5223 80.3709 49.5345 85.5906 62.1832 86.0246C60.7985 88.1714 58.7788 89.8329 56.4053 90.7777C54.0318 91.7225 51.4227 91.9034 48.9415 91.2954ZM65.7207 77.8496C39.9248 77.4329 22.5748 60.0787 22.154 34.2787L87.5415 8.52875C88.0875 8.31946 88.683 8.27501 89.254 8.40092C89.8251 8.52684 90.3466 8.81757 90.754 9.23708C91.1696 9.62576 91.4625 10.1275 91.5965 10.6806C91.7305 11.2336 91.6998 11.8138 91.5082 12.3496L88.7498 19.3537C64.7582 11.1038 51.4915 45.2246 74.529 55.4704L65.7207 77.8496ZM77.5832 47.7162C74.9698 46.5641 72.9036 44.4456 71.8171 41.8044C70.7307 39.1631 70.7082 36.2039 71.7545 33.5464C72.8008 30.889 74.8347 28.7394 77.4302 27.5478C80.0258 26.3562 82.9817 26.215 85.679 27.1538L77.5832 47.7162Z" fill="#83DCFF"></path><path d="M45.8333 37.5C43.6232 37.5 41.5036 38.378 39.9408 39.9408C38.378 41.5036 37.5 43.6232 37.5 45.8333C37.5 48.0435 38.378 50.1631 39.9408 51.7259C41.5036 53.2887 43.6232 54.1667 45.8333 54.1667C48.0435 54.1667 50.1631 53.2887 51.7259 51.7259C53.2887 50.1631 54.1667 48.0435 54.1667 45.8333C54.1667 43.6232 53.2887 41.5036 51.7259 39.9408C50.1631 38.378 48.0435 37.5 45.8333 37.5Z" fill="#83DCFF"></path></g><defs><clipPath id="clip0_387_25"><rect width="100" height="100" fill="white"></rect></clipPath></defs></svg>