<svg xmlns="http://www.w3.org/2000/svg" width="100" height="100" viewBox="0 0 100 100" fill="none"><g clip-path="url(#clip0_387_40)"><path d="M3.33686 48.328C6.50769 44.0946 11.366 41.6655 16.6577 41.6655H49.9785V29.1946H4.16602C1.86602 29.1946 -0.000642459 27.3321 -0.000642459 25.028C-0.000642459 22.7238 1.86602 20.8613 4.16602 20.8613H49.9785V14.9405L4.21602 12.5238C1.91602 12.403 0.153524 10.4405 0.274357 8.14045C0.395191 5.84045 2.34519 4.10712 4.65353 4.19879L83.5577 8.36545C85.8577 8.48629 87.6202 10.4488 87.4994 12.7488C87.3827 14.9696 85.541 16.6946 83.341 16.6946C83.266 16.6946 83.191 16.6946 83.116 16.6946L79.141 16.4863V20.8655H83.3369C85.6369 20.8655 87.5035 22.728 87.5035 25.0321C87.5035 27.3363 85.6369 29.1988 83.3369 29.1988H79.141V41.6696H83.3035C88.5952 41.6696 93.4494 44.0946 96.6202 48.328C99.8244 52.5905 100.795 57.9863 99.2994 63.1196C96.3494 73.2071 91.0119 82.3071 83.8494 89.4405C77.1119 96.1446 67.5952 99.9946 57.7327 99.9946H42.2244C32.366 99.9946 22.8494 96.1446 16.1077 89.4363C8.94519 82.3071 3.60769 73.203 0.661859 63.1196C-0.838141 57.9863 0.13686 52.5946 3.33686 48.3238V48.328ZM70.8119 16.0405L58.3119 15.3821V20.8613H70.8119V16.0405ZM70.8119 29.1946H58.3119V41.6655H70.8119V29.1946ZM8.66602 60.7863C11.1827 69.403 15.916 77.4821 21.991 83.5363C27.1827 88.703 34.5577 91.6655 42.2285 91.6655H57.7369C65.4077 91.6655 72.7827 88.703 77.9702 83.5405C84.0452 77.4863 88.7827 69.403 91.2994 60.7863C92.0577 58.1946 91.566 55.4738 89.9577 53.3238C88.3744 51.2113 85.9494 49.9988 83.3077 49.9988H16.6619C14.0202 49.9988 11.5952 51.2113 10.0077 53.3238C8.39936 55.4738 7.90769 58.1905 8.66602 60.7863Z" fill="#A474FF"></path></g><defs><clipPath id="clip0_387_40"><rect width="100" height="100" fill="white" transform="matrix(-1 0 0 1 100 0)"></rect></clipPath></defs></svg>